<svg width="262" height="99" viewBox="0 0 262 99" fill="none" xmlns="http://www.w3.org/2000/svg">
<path d="M52.8389 0.949998C55.1389 0.949998 57.1055 1.28333 58.7389 1.95C60.3722 2.58333 61.9555 3.58333 63.4889 4.95L60.8889 7.85C59.5889 6.81666 58.3055 6.06666 57.0389 5.6C55.8055 5.1 54.4722 4.85 53.0389 4.85C51.2389 4.85 49.7555 5.26666 48.5889 6.1C47.4222 6.93333 46.8389 8.15 46.8389 9.75C46.8389 10.75 47.0389 11.6 47.4389 12.3C47.8389 12.9667 48.5722 13.5833 49.6389 14.15C50.7389 14.7167 52.3222 15.3167 54.3889 15.95C56.5555 16.6167 58.3555 17.3333 59.7889 18.1C61.2222 18.8667 62.3722 19.9333 63.2389 21.3C64.1389 22.6333 64.5889 24.3333 64.5889 26.4C64.5889 28.4 64.0889 30.1667 63.0889 31.7C62.1222 33.2333 60.7055 34.4333 58.8389 35.3C57.0055 36.1667 54.8222 36.6 52.2889 36.6C47.5222 36.6 43.6222 35.1167 40.5889 32.15L43.1889 29.25C44.5889 30.3833 46.0055 31.25 47.4389 31.85C48.8722 32.4167 50.4722 32.7 52.2389 32.7C54.3722 32.7 56.1389 32.1833 57.5389 31.15C58.9389 30.0833 59.6389 28.55 59.6389 26.55C59.6389 25.4167 59.4222 24.4833 58.9889 23.75C58.5555 22.9833 57.8055 22.3 56.7389 21.7C55.7055 21.1 54.1889 20.5 52.1889 19.9C48.6555 18.8333 46.0722 17.55 44.4389 16.05C42.8055 14.55 41.9889 12.5167 41.9889 9.95C41.9889 8.21667 42.4389 6.66667 43.3389 5.3C44.2722 3.93333 45.5555 2.86667 47.1889 2.1C48.8555 1.33333 50.7389 0.949998 52.8389 0.949998ZM90.8119 1.55L90.3119 5.6H80.7619V36H76.0119V5.6H66.2119V1.55H90.8119ZM118.542 1.55L107.442 22.75V36H102.642V22.8L91.542 1.55H96.792L105.192 18.6L113.592 1.55H118.542ZM128.532 1.55V31.85H142.682L142.132 36H123.782V1.55H128.532ZM153.435 1.55V36H148.685V1.55H153.435ZM171.931 0.949998C174.231 0.949998 176.197 1.28333 177.831 1.95C179.464 2.58333 181.047 3.58333 182.581 4.95L179.981 7.85C178.681 6.81666 177.397 6.06666 176.131 5.6C174.897 5.1 173.564 4.85 172.131 4.85C170.331 4.85 168.847 5.26666 167.681 6.1C166.514 6.93333 165.931 8.15 165.931 9.75C165.931 10.75 166.131 11.6 166.531 12.3C166.931 12.9667 167.664 13.5833 168.731 14.15C169.831 14.7167 171.414 15.3167 173.481 15.95C175.647 16.6167 177.447 17.3333 178.881 18.1C180.314 18.8667 181.464 19.9333 182.331 21.3C183.231 22.6333 183.681 24.3333 183.681 26.4C183.681 28.4 183.181 30.1667 182.181 31.7C181.214 33.2333 179.797 34.4333 177.931 35.3C176.097 36.1667 173.914 36.6 171.381 36.6C166.614 36.6 162.714 35.1167 159.681 32.15L162.281 29.25C163.681 30.3833 165.097 31.25 166.531 31.85C167.964 32.4167 169.564 32.7 171.331 32.7C173.464 32.7 175.231 32.1833 176.631 31.15C178.031 30.0833 178.731 28.55 178.731 26.55C178.731 25.4167 178.514 24.4833 178.081 23.75C177.647 22.9833 176.897 22.3 175.831 21.7C174.797 21.1 173.281 20.5 171.281 19.9C167.747 18.8333 165.164 17.55 163.531 16.05C161.897 14.55 161.081 12.5167 161.081 9.95C161.081 8.21667 161.531 6.66667 162.431 5.3C163.364 3.93333 164.647 2.86667 166.281 2.1C167.947 1.33333 169.831 0.949998 171.931 0.949998ZM209.927 36V19.85H195.427V36H190.677V1.55H195.427V15.95H209.927V1.55H214.677V36H209.927ZM44.7539 51.0938C45.1966 51.0938 45.6719 51.1458 46.1797 51.25C46.7005 51.3411 47.1823 51.5039 47.625 51.7383C48.0677 51.9596 48.4323 52.2656 48.7188 52.6562C49.0052 53.0339 49.1484 53.5091 49.1484 54.082C49.1484 54.7852 48.9401 55.4232 48.5234 55.9961C48.1198 56.569 47.5469 57.0638 46.8047 57.4805C46.0625 57.8841 45.1706 58.2031 44.1289 58.4375C43.1003 58.6589 41.9609 58.7695 40.7109 58.7695C39.3047 58.7695 37.7812 58.6719 36.1406 58.4766C35.8411 59.4141 35.6133 60.4622 35.457 61.6211C35.3138 62.7799 35.2357 64.069 35.2227 65.4883C35.7174 65.4753 36.2188 65.4688 36.7266 65.4688C37.2474 65.4557 37.7812 65.4492 38.3281 65.4492C39.0573 65.4492 39.793 65.4622 40.5352 65.4883C41.2773 65.5013 42.026 65.5208 42.7812 65.5469C43.0026 65.5599 43.1719 65.6445 43.2891 65.8008C43.4193 65.944 43.4844 66.1133 43.4844 66.3086C43.4844 66.5169 43.4128 66.6862 43.2695 66.8164C43.1263 66.9466 42.957 67.0117 42.7617 67.0117C42.0195 67.0117 41.2773 66.9987 40.5352 66.9727C39.806 66.9466 39.0833 66.9336 38.3672 66.9336C37.8203 66.9336 37.2865 66.9401 36.7656 66.9531C36.2448 66.9531 35.7305 66.9596 35.2227 66.9727C35.2227 67.1549 35.2227 67.3307 35.2227 67.5C35.2357 67.6693 35.2422 67.8451 35.2422 68.0273C35.2422 70.0586 34.9362 71.8685 34.3242 73.457C33.7122 75.0326 32.8138 76.3607 31.6289 77.4414C30.457 78.5221 29.0117 79.3424 27.293 79.9023C25.5742 80.4622 23.6016 80.7422 21.375 80.7422C19.7344 80.7422 18.276 80.5924 17 80.293C15.737 80.0065 14.6237 79.6224 13.6602 79.1406C12.7096 78.6589 11.8893 78.1185 11.1992 77.5195C10.5221 76.9076 9.95573 76.2956 9.5 75.6836C9.04427 75.0586 8.67969 74.4596 8.40625 73.8867C8.13281 73.3008 7.93099 72.7995 7.80078 72.3828C7.78776 72.3438 7.77474 72.3112 7.76172 72.2852C7.76172 72.2461 7.76172 72.207 7.76172 72.168C7.76172 71.9727 7.83333 71.8034 7.97656 71.6602C8.11979 71.5039 8.30208 71.4258 8.52344 71.4258C8.67969 71.4258 8.81641 71.4714 8.93359 71.5625C9.0638 71.6536 9.15495 71.7773 9.20703 71.9336C9.32422 72.2982 9.5 72.7344 9.73438 73.2422C9.96875 73.75 10.2878 74.2773 10.6914 74.8242C11.1081 75.3581 11.6159 75.8919 12.2148 76.4258C12.8268 76.9596 13.5625 77.4349 14.4219 77.8516C15.2943 78.2682 16.2969 78.6068 17.4297 78.8672C18.5755 79.1276 19.8906 79.2578 21.375 79.2578C25.4635 79.2578 28.5495 78.3073 30.6328 76.4062C32.7292 74.5052 33.7773 71.6992 33.7773 67.9883C33.7773 67.832 33.7708 67.6758 33.7578 67.5195C33.7578 67.3503 33.7578 67.1875 33.7578 67.0312C32.4427 67.0833 31.2318 67.1484 30.125 67.2266C29.0182 67.2917 28.0482 67.3633 27.2148 67.4414C26.3945 67.5065 25.7305 67.5651 25.2227 67.6172C24.7148 67.6562 24.4023 67.6758 24.2852 67.6758C24.0638 67.6758 23.8685 67.6172 23.6992 67.5C23.5299 67.3698 23.4453 67.181 23.4453 66.9336C23.4453 66.7513 23.5104 66.5951 23.6406 66.4648C23.7708 66.3216 23.9271 66.237 24.1094 66.2109C24.1224 66.2109 24.3698 66.1849 24.8516 66.1328C25.3464 66.0807 26.0234 66.0221 26.8828 65.957C27.7422 65.8789 28.7578 65.8073 29.9297 65.7422C31.1016 65.6641 32.3776 65.599 33.7578 65.5469C33.7839 62.6693 34.0833 60.2474 34.6562 58.2812C33.237 58.0729 31.7917 57.8255 30.3203 57.5391C28.849 57.2396 27.3841 56.9271 25.9258 56.6016C24.4674 56.276 23.0286 55.957 21.6094 55.6445C20.2031 55.319 18.849 55.026 17.5469 54.7656C16.2448 54.5052 15.0208 54.2969 13.875 54.1406C12.7292 53.9844 11.6875 53.9062 10.75 53.9062C9.4349 53.9062 8.21094 54.043 7.07812 54.3164C5.94531 54.5768 4.96224 54.9609 4.12891 55.4688C3.30859 55.9766 2.65755 56.6016 2.17578 57.3438C1.70703 58.0729 1.47266 58.9062 1.47266 59.8438C1.47266 60.4557 1.58333 61.0091 1.80469 61.5039C2.03906 61.9857 2.29948 62.4023 2.58594 62.7539C2.8724 63.0924 3.13932 63.3594 3.38672 63.5547C3.63411 63.737 3.77083 63.8346 3.79688 63.8477C3.91406 63.9128 3.9987 64.0039 4.05078 64.1211C4.10286 64.2383 4.12891 64.3555 4.12891 64.4727C4.12891 64.694 4.05078 64.8763 3.89453 65.0195C3.7513 65.1497 3.58854 65.2148 3.40625 65.2148C3.26302 65.2148 3.1263 65.1693 2.99609 65.0781C2.68359 64.8698 2.35156 64.5964 2 64.2578C1.64844 63.9193 1.32292 63.5352 1.02344 63.1055C0.736979 62.6628 0.496094 62.168 0.300781 61.6211C0.105469 61.0742 0.0078125 60.4818 0.0078125 59.8438C0.0078125 58.6719 0.28125 57.6302 0.828125 56.7188C1.38802 55.8073 2.14974 55.0326 3.11328 54.3945C4.07682 53.7565 5.20964 53.2747 6.51172 52.9492C7.82682 52.6107 9.24609 52.4414 10.7695 52.4414C11.668 52.4414 12.6901 52.526 13.8359 52.6953C14.9818 52.8516 16.2122 53.0599 17.5273 53.3203C18.8555 53.5807 20.2422 53.8737 21.6875 54.1992C23.1458 54.5247 24.6302 54.8568 26.1406 55.1953C27.651 55.5208 29.168 55.8333 30.6914 56.1328C32.2148 56.4323 33.7057 56.6862 35.1641 56.8945C35.5286 55.8789 36.0495 55.0065 36.7266 54.2773C37.4167 53.5352 38.1979 52.9297 39.0703 52.4609C39.9427 51.9922 40.8672 51.6471 41.8438 51.4258C42.8333 51.2044 43.8034 51.0938 44.7539 51.0938ZM47.6641 54.043C47.6641 53.7305 47.5599 53.4831 47.3516 53.3008C47.1562 53.1055 46.9089 52.9557 46.6094 52.8516C46.3099 52.7344 45.9909 52.6562 45.6523 52.6172C45.3268 52.5781 45.0273 52.5586 44.7539 52.5586C44.1289 52.5586 43.4323 52.6237 42.6641 52.7539C41.9089 52.8841 41.1536 53.1185 40.3984 53.457C39.6562 53.7956 38.9531 54.2578 38.2891 54.8438C37.638 55.4297 37.1042 56.1784 36.6875 57.0898C38.1328 57.2461 39.4674 57.3242 40.6914 57.3242C41.694 57.3242 42.6185 57.2461 43.4648 57.0898C44.3242 56.9206 45.0599 56.6927 45.6719 56.4062C46.2969 56.1198 46.7852 55.7747 47.1367 55.3711C47.4883 54.9674 47.6641 54.5247 47.6641 54.043ZM47.2148 64.668C47.2148 65.1628 47.0391 65.5859 46.6875 65.9375C46.349 66.276 45.9323 66.4453 45.4375 66.4453C44.9427 66.4453 44.5195 66.276 44.168 65.9375C43.8294 65.5859 43.6602 65.1628 43.6602 64.668C43.6602 64.4206 43.7057 64.1927 43.7969 63.9844C43.888 63.763 44.0117 63.5742 44.168 63.418C44.3372 63.2487 44.526 63.1185 44.7344 63.0273C44.9557 62.9362 45.1901 62.8906 45.4375 62.8906C45.6849 62.8906 45.9128 62.9362 46.1211 63.0273C46.3424 63.1185 46.5312 63.2487 46.6875 63.418C46.8568 63.5742 46.987 63.763 47.0781 63.9844C47.1693 64.1927 47.2148 64.4206 47.2148 64.668ZM44.0508 76.1133C44.0508 74.2383 44.168 72.3698 44.4023 70.5078C44.4284 70.3255 44.5065 70.1693 44.6367 70.0391C44.7799 69.8958 44.9622 69.8242 45.1836 69.8242C45.3789 69.8242 45.5417 69.9023 45.6719 70.0586C45.8021 70.2018 45.8672 70.3711 45.8672 70.5664C45.8672 70.6445 45.8477 70.8789 45.8086 71.2695C45.7826 71.6602 45.7435 72.1289 45.6914 72.6758C45.6523 73.2096 45.6133 73.7826 45.5742 74.3945C45.5482 74.9935 45.5352 75.5469 45.5352 76.0547C45.5352 76.7448 45.6003 77.3047 45.7305 77.7344C45.8737 78.151 46.0495 78.4766 46.2578 78.7109C46.4792 78.9453 46.707 79.1016 46.9414 79.1797C47.1888 79.2578 47.4232 79.2969 47.6445 79.2969C48.0091 79.2969 48.3867 79.1667 48.7773 78.9062C49.168 78.6458 49.5651 78.2812 49.9688 77.8125C50.3854 77.3438 50.8021 76.7839 51.2188 76.1328C51.6354 75.4688 52.0456 74.7331 52.4492 73.9258C52.5143 73.7956 52.6055 73.6979 52.7227 73.6328C52.8398 73.5547 52.9701 73.5156 53.1133 73.5156C53.3216 73.5156 53.4909 73.5938 53.6211 73.75C53.7643 73.9062 53.8359 74.0755 53.8359 74.2578C53.8359 74.388 53.8099 74.4987 53.7578 74.5898C53.6016 74.8893 53.4062 75.2539 53.1719 75.6836C52.9375 76.1133 52.6706 76.556 52.3711 77.0117C52.0716 77.4674 51.7396 77.9232 51.375 78.3789C51.0234 78.8216 50.6458 79.2253 50.2422 79.5898C49.8385 79.9414 49.4154 80.2279 48.9727 80.4492C48.5299 80.6706 48.0807 80.7812 47.625 80.7812C47.0391 80.7812 46.5247 80.6576 46.082 80.4102C45.6393 80.1628 45.2617 79.8307 44.9492 79.4141C44.6497 78.9974 44.4219 78.5091 44.2656 77.9492C44.1224 77.3763 44.0508 76.7643 44.0508 76.1133ZM46.1211 64.668C46.1211 64.4857 46.0495 64.3294 45.9062 64.1992C45.776 64.056 45.6198 63.9844 45.4375 63.9844C45.2552 63.9844 45.099 64.056 44.9688 64.1992C44.8385 64.3294 44.7734 64.4857 44.7734 64.668C44.7734 64.8503 44.8385 65.0065 44.9688 65.1367C45.099 65.2669 45.2552 65.332 45.4375 65.332C45.6198 65.332 45.776 65.2669 45.9062 65.1367C46.0495 65.0065 46.1211 64.8503 46.1211 64.668ZM56.7656 78.2422C56.974 77.8125 57.2148 77.3438 57.4883 76.8359C57.7617 76.3151 58.0547 75.7943 58.3672 75.2734C58.6797 74.7396 59.0052 74.2122 59.3438 73.6914C59.6953 73.1706 60.0599 72.6758 60.4375 72.207C60.8151 71.7513 61.1927 71.4258 61.5703 71.2305C61.9609 71.0221 62.3255 70.918 62.6641 70.918C63.3411 70.918 63.8424 71.1654 64.168 71.6602C64.4935 72.1549 64.6562 72.7669 64.6562 73.4961C64.6562 73.6654 64.6432 73.8737 64.6172 74.1211C64.6042 74.3555 64.5846 74.6094 64.5586 74.8828C64.5456 75.1562 64.526 75.4362 64.5 75.7227C64.487 75.9961 64.4805 76.2565 64.4805 76.5039C64.4805 76.8164 64.4935 77.1159 64.5195 77.4023C64.5586 77.6888 64.6237 77.9427 64.7148 78.1641C64.806 78.3724 64.9362 78.5417 65.1055 78.6719C65.2747 78.7891 65.4961 78.8477 65.7695 78.8477C66.2643 78.8477 66.7461 78.6589 67.2148 78.2812C67.6836 77.8906 68.1133 77.4349 68.5039 76.9141C68.9076 76.3802 69.2526 75.8398 69.5391 75.293C69.8385 74.7461 70.0599 74.3034 70.2031 73.9648C70.2682 73.8216 70.3594 73.7109 70.4766 73.6328C70.6068 73.5547 70.7435 73.5156 70.8867 73.5156C71.1081 73.5156 71.2839 73.6003 71.4141 73.7695C71.5573 73.9258 71.6289 74.0951 71.6289 74.2773C71.6289 74.3685 71.6094 74.4596 71.5703 74.5508C71.5182 74.6549 71.4141 74.8698 71.2578 75.1953C71.1016 75.5208 70.8932 75.8984 70.6328 76.3281C70.3854 76.7448 70.0924 77.194 69.7539 77.6758C69.4154 78.1445 69.0378 78.5742 68.6211 78.9648C68.2174 79.3555 67.7747 79.681 67.293 79.9414C66.8242 80.2018 66.3294 80.332 65.8086 80.332C65.2227 80.332 64.7474 80.2214 64.3828 80C64.0182 79.7656 63.7318 79.4661 63.5234 79.1016C63.3151 78.724 63.1719 78.3138 63.0938 77.8711C63.0286 77.4154 62.9961 76.9596 62.9961 76.5039C62.9961 76.3086 63.0026 76.0872 63.0156 75.8398C63.0417 75.5924 63.0677 75.332 63.0938 75.0586C63.1328 74.7852 63.1589 74.5117 63.1719 74.2383C63.1979 73.9648 63.2109 73.7044 63.2109 73.457C63.2109 73.0404 63.1458 72.7604 63.0156 72.6172C62.8854 72.4609 62.7682 72.3828 62.6641 72.3828C62.4557 72.3828 62.2148 72.5065 61.9414 72.7539C61.681 72.9883 61.401 73.3008 61.1016 73.6914C60.8151 74.082 60.5156 74.5247 60.2031 75.0195C59.9036 75.5013 59.6172 75.9831 59.3438 76.4648C59.0833 76.9466 58.8359 77.4089 58.6016 77.8516C58.3802 78.2812 58.2044 78.6393 58.0742 78.9258C57.8138 79.4727 57.5534 79.8372 57.293 80.0195C57.0326 80.2148 56.7656 80.3125 56.4922 80.3125C56.1146 80.3125 55.8086 80.2018 55.5742 79.9805C55.3529 79.7461 55.2422 79.4206 55.2422 79.0039C55.2422 78.9128 55.2552 78.737 55.2812 78.4766C55.3073 78.2031 55.3398 77.8841 55.3789 77.5195C55.418 77.1419 55.457 76.7383 55.4961 76.3086C55.5352 75.8789 55.5742 75.4557 55.6133 75.0391C55.6523 74.6094 55.6849 74.2122 55.7109 73.8477C55.737 73.4831 55.75 73.1771 55.75 72.9297C55.75 72.6042 55.737 72.2917 55.7109 71.9922C55.6849 71.6927 55.6328 71.5104 55.5547 71.4453C55.4375 71.4844 55.2292 71.7318 54.9297 72.1875C54.6302 72.6302 54.2461 73.418 53.7773 74.5508C53.7122 74.694 53.6146 74.8047 53.4844 74.8828C53.3542 74.9609 53.2174 75 53.0742 75C52.8529 75 52.6771 74.9284 52.5469 74.7852C52.4167 74.6289 52.3516 74.4531 52.3516 74.2578C52.3516 74.1667 52.3711 74.069 52.4102 73.9648C52.9961 72.5716 53.543 71.5495 54.0508 70.8984C54.5716 70.2344 55.0859 69.9023 55.5938 69.9023C55.8932 69.9023 56.1471 69.9805 56.3555 70.1367C56.5638 70.2799 56.7266 70.4753 56.8438 70.7227C56.974 70.9701 57.0651 71.2435 57.1172 71.543C57.1823 71.8424 57.2148 72.1484 57.2148 72.4609C57.2148 72.6953 57.1953 73.0599 57.1562 73.5547C57.1302 74.0495 57.0911 74.5833 57.0391 75.1562C56.987 75.7161 56.9349 76.276 56.8828 76.8359C56.8438 77.3958 56.8047 77.8646 56.7656 78.2422ZM77.8203 74.3164C78.4583 77.3242 79.3828 78.8281 80.5938 78.8281C81.0625 78.8281 81.5117 78.6589 81.9414 78.3203C82.3711 77.9688 82.7682 77.5456 83.1328 77.0508C83.5104 76.543 83.8424 76.0091 84.1289 75.4492C84.4154 74.8893 84.6497 74.401 84.832 73.9844C84.9622 73.6719 85.1901 73.5156 85.5156 73.5156C85.724 73.5156 85.8997 73.5938 86.043 73.75C86.1862 73.9062 86.2578 74.0755 86.2578 74.2578C86.2578 74.362 86.2383 74.4531 86.1992 74.5312C86.1081 74.7526 85.9714 75.0521 85.7891 75.4297C85.6198 75.7943 85.4049 76.1914 85.1445 76.6211C84.8971 77.0378 84.6172 77.4674 84.3047 77.9102C83.9922 78.3529 83.6471 78.75 83.2695 79.1016C82.8919 79.4531 82.4883 79.7461 82.0586 79.9805C81.6419 80.2018 81.1992 80.3125 80.7305 80.3125C79.8581 80.3125 79.1094 80.013 78.4844 79.4141C77.8594 78.8021 77.319 77.7995 76.8633 76.4062C76.2383 77.7344 75.6068 78.6979 74.9688 79.2969C74.3307 79.8958 73.6406 80.1953 72.8984 80.1953C72.5078 80.1953 72.1302 80.1302 71.7656 80C71.401 79.8828 71.082 79.681 70.8086 79.3945C70.5352 79.1081 70.3138 78.7435 70.1445 78.3008C69.9753 77.8451 69.8906 77.2917 69.8906 76.6406C69.8906 75.7422 70.0469 74.9154 70.3594 74.1602C70.6719 73.4049 71.0755 72.7604 71.5703 72.2266C72.0651 71.6797 72.612 71.2565 73.2109 70.957C73.8229 70.6576 74.4284 70.5078 75.0273 70.5078C75.2227 70.5078 75.3919 70.5794 75.5352 70.7227C75.6784 70.8529 75.75 71.0221 75.75 71.2305C75.75 71.4128 75.6914 71.5755 75.5742 71.7188C75.457 71.862 75.3008 71.9466 75.1055 71.9727C74.7148 72.0247 74.2982 72.1484 73.8555 72.3438C73.4128 72.5391 73.0026 72.8255 72.625 73.2031C72.2604 73.5677 71.9544 74.0365 71.707 74.6094C71.4727 75.1823 71.3555 75.8659 71.3555 76.6602C71.3555 77.3112 71.4857 77.819 71.7461 78.1836C72.0195 78.5482 72.4102 78.7305 72.918 78.7305C73.1263 78.7305 73.3477 78.6784 73.582 78.5742C73.8164 78.457 74.0638 78.2357 74.3242 77.9102C74.5977 77.5846 74.8906 77.1224 75.2031 76.5234C75.5286 75.9245 75.8867 75.1367 76.2773 74.1602C76.056 73.0143 75.8542 71.6927 75.6719 70.1953C75.4896 68.6979 75.3984 67.0247 75.3984 65.1758C75.3984 64.3685 75.4245 63.5286 75.4766 62.6562C75.5286 61.7708 75.6133 60.9115 75.7305 60.0781C75.8477 59.2318 76.0039 58.431 76.1992 57.6758C76.3945 56.9206 76.6289 56.2565 76.9023 55.6836C77.1888 55.1107 77.5208 54.6615 77.8984 54.3359C78.276 53.9974 78.7057 53.8281 79.1875 53.8281C79.6172 53.8281 79.9818 53.9453 80.2812 54.1797C80.5807 54.4141 80.8216 54.7396 81.0039 55.1562C81.1992 55.5729 81.3424 56.0742 81.4336 56.6602C81.5247 57.2461 81.5703 57.8906 81.5703 58.5938C81.5703 60.1042 81.4401 61.6146 81.1797 63.125C80.9193 64.6354 80.5938 66.0807 80.2031 67.4609C79.8255 68.8411 79.4219 70.1172 78.9922 71.2891C78.5625 72.4609 78.1719 73.4701 77.8203 74.3164ZM80.1055 58.5742C80.1055 58.2487 80.0924 57.8971 80.0664 57.5195C80.0534 57.1419 80.0078 56.7904 79.9297 56.4648C79.8646 56.1263 79.7734 55.8464 79.6562 55.625C79.5391 55.4036 79.3828 55.293 79.1875 55.293C78.862 55.293 78.556 55.5794 78.2695 56.1523C77.9961 56.7253 77.7552 57.4805 77.5469 58.418C77.3385 59.3424 77.1693 60.3971 77.0391 61.582C76.9219 62.7539 76.8633 63.9388 76.8633 65.1367C76.8633 66.2826 76.9089 67.4284 77 68.5742C77.0911 69.7201 77.1953 70.7422 77.3125 71.6406C77.6901 70.638 78.0482 69.6094 78.3867 68.5547C78.7253 67.487 79.0182 66.3997 79.2656 65.293C79.526 64.1862 79.7279 63.0729 79.8711 61.9531C80.0273 60.8203 80.1055 59.694 80.1055 58.5742ZM133.445 78.9453C133.445 79.362 133.191 79.6094 132.684 79.6875C132.658 79.6875 132.488 79.7135 132.176 79.7656C131.876 79.8177 131.486 79.9023 131.004 80.0195C130.535 80.1367 129.995 80.2865 129.383 80.4688C128.771 80.6641 128.146 80.8984 127.508 81.1719C127.56 81.875 127.599 82.5716 127.625 83.2617C127.651 83.9648 127.664 84.6549 127.664 85.332C127.664 86.6992 127.56 88.0339 127.352 89.3359C127.143 90.638 126.792 91.7969 126.297 92.8125C125.802 93.8411 125.145 94.668 124.324 95.293C123.504 95.918 122.488 96.2305 121.277 96.2305C120.574 96.2305 119.943 96.1003 119.383 95.8398C118.823 95.5924 118.348 95.2474 117.957 94.8047C117.566 94.375 117.267 93.8672 117.059 93.2812C116.85 92.6953 116.746 92.0703 116.746 91.4062C116.746 90.5339 116.928 89.6029 117.293 88.6133C117.658 87.6237 118.217 86.6276 118.973 85.625C119.728 84.6354 120.685 83.6719 121.844 82.7344C123.003 81.8099 124.376 80.9766 125.965 80.2344C125.9 79.4141 125.841 78.5547 125.789 77.6562C125.75 76.7448 125.73 75.8659 125.73 75.0195C125.73 74.5898 125.743 74.1016 125.77 73.5547C125.796 72.9948 125.835 72.3958 125.887 71.7578C125.939 71.1198 125.997 70.4492 126.062 69.7461C126.141 69.043 126.219 68.3268 126.297 67.5977C125.529 69.8112 124.695 71.7643 123.797 73.457C122.898 75.1497 121.954 76.569 120.965 77.7148C119.988 78.8477 118.966 79.707 117.898 80.293C116.831 80.8789 115.743 81.1719 114.637 81.1719C113.66 81.1719 112.814 81.0091 112.098 80.6836C111.382 80.3711 110.783 79.9284 110.301 79.3555C109.819 78.7695 109.461 78.0664 109.227 77.2461C108.992 76.4258 108.875 75.5078 108.875 74.4922C108.875 73.138 109.018 71.6927 109.305 70.1562C109.591 68.6068 109.91 67.0378 110.262 65.4492C110.47 64.4987 110.678 63.5417 110.887 62.5781C111.095 61.6146 111.199 60.7031 111.199 59.8438C111.199 58.8932 111.062 58.0078 110.789 57.1875C110.516 56.3672 110.112 55.6576 109.578 55.0586C109.057 54.4596 108.413 53.9909 107.645 53.6523C106.876 53.3008 105.997 53.125 105.008 53.125C103.758 53.125 102.579 53.3659 101.473 53.8477C100.379 54.3164 99.4219 54.974 98.6016 55.8203C97.7812 56.6667 97.1302 57.6693 96.6484 58.8281C96.1667 59.987 95.9258 61.25 95.9258 62.6172C95.9258 63.4375 96.0234 64.2578 96.2188 65.0781C96.4141 65.8854 96.7135 66.6341 97.1172 67.3242C97.5339 68.0013 98.0612 68.5807 98.6992 69.0625C99.3372 69.5443 100.099 69.8633 100.984 70.0195C101.167 70.0456 101.316 70.1302 101.434 70.2734C101.564 70.4167 101.629 70.5794 101.629 70.7617C101.629 70.957 101.557 71.1328 101.414 71.2891C101.271 71.4323 101.102 71.5039 100.906 71.5039C100.763 71.5039 100.503 71.4518 100.125 71.3477C99.7474 71.2435 99.3177 71.0677 98.8359 70.8203C98.3672 70.5729 97.8724 70.2409 97.3516 69.8242C96.8307 69.3945 96.3555 68.8542 95.9258 68.2031C95.5091 67.5521 95.1576 66.7839 94.8711 65.8984C94.5977 65 94.4609 63.9518 94.4609 62.7539C94.4609 61.1133 94.7344 59.6159 95.2812 58.2617C95.8411 56.8945 96.5964 55.7227 97.5469 54.7461C98.4974 53.7695 99.6107 53.0143 100.887 52.4805C102.176 51.9336 103.543 51.6602 104.988 51.6602C106.199 51.6602 107.28 51.875 108.23 52.3047C109.194 52.7214 110.001 53.3008 110.652 54.043C111.303 54.7721 111.798 55.638 112.137 56.6406C112.488 57.6432 112.664 58.724 112.664 59.8828C112.664 60.3125 112.645 60.7552 112.605 61.2109C112.566 61.6536 112.495 62.1094 112.391 62.5781C112.195 63.5807 111.974 64.6029 111.727 65.6445C111.492 66.6862 111.271 67.7148 111.062 68.7305C110.854 69.7461 110.678 70.7357 110.535 71.6992C110.405 72.6628 110.34 73.5677 110.34 74.4141C110.34 75.1693 110.411 75.8724 110.555 76.5234C110.711 77.1615 110.958 77.7214 111.297 78.2031C111.635 78.6719 112.078 79.043 112.625 79.3164C113.172 79.5768 113.849 79.707 114.656 79.707C116.128 79.707 117.56 79.0495 118.953 77.7344C120.359 76.4193 121.714 74.4531 123.016 71.8359C123.51 70.8464 123.973 69.7721 124.402 68.6133C124.832 67.4544 125.223 66.2956 125.574 65.1367C125.926 63.9779 126.238 62.8646 126.512 61.7969C126.798 60.7292 127.033 59.7852 127.215 58.9648C127.41 58.1315 127.56 57.4609 127.664 56.9531C127.768 56.4453 127.82 56.1849 127.82 56.1719C127.846 55.9896 127.924 55.8464 128.055 55.7422C128.198 55.625 128.354 55.5664 128.523 55.5664C128.745 55.5664 128.921 55.6445 129.051 55.8008C129.194 55.944 129.266 56.1068 129.266 56.2891C129.266 56.3411 129.233 56.582 129.168 57.0117C129.103 57.4284 129.018 57.9818 128.914 58.6719C128.81 59.349 128.686 60.1367 128.543 61.0352C128.413 61.9336 128.276 62.8776 128.133 63.8672C128.029 64.6094 127.918 65.4622 127.801 66.4258C127.697 67.3763 127.599 68.3594 127.508 69.375C127.417 70.3906 127.339 71.3997 127.273 72.4023C127.221 73.4049 127.195 74.3229 127.195 75.1562C127.195 75.8594 127.215 76.5951 127.254 77.3633C127.293 78.1185 127.345 78.8737 127.41 79.6289C127.944 79.4076 128.484 79.2122 129.031 79.043C129.591 78.8737 130.112 78.7305 130.594 78.6133C131.076 78.4831 131.499 78.3854 131.863 78.3203C132.228 78.2552 132.482 78.2161 132.625 78.2031C132.885 78.1771 133.087 78.2422 133.23 78.3984C133.374 78.5417 133.445 78.724 133.445 78.9453ZM126.082 81.8359C124.832 82.4089 123.719 83.0924 122.742 83.8867C121.779 84.681 120.958 85.5078 120.281 86.3672C119.617 87.2396 119.109 88.112 118.758 88.9844C118.406 89.8568 118.23 90.6641 118.23 91.4062C118.23 91.875 118.296 92.3112 118.426 92.7148C118.569 93.1185 118.771 93.4701 119.031 93.7695C119.292 94.082 119.611 94.3229 119.988 94.4922C120.366 94.6615 120.789 94.7461 121.258 94.7461C121.961 94.7461 122.566 94.5964 123.074 94.2969C123.595 93.9974 124.038 93.5938 124.402 93.0859C124.78 92.5781 125.079 91.9987 125.301 91.3477C125.535 90.6966 125.717 90.0195 125.848 89.3164C125.991 88.6263 126.082 87.9297 126.121 87.2266C126.173 86.5365 126.199 85.8919 126.199 85.293C126.199 84.7331 126.186 84.1602 126.16 83.5742C126.134 83.0013 126.108 82.4219 126.082 81.8359ZM143.191 77.8516C142.866 77.8516 142.579 77.8255 142.332 77.7734C142.137 78.1641 141.902 78.5286 141.629 78.8672C141.355 79.1927 141.036 79.4792 140.672 79.7266C140.32 79.974 139.923 80.1693 139.48 80.3125C139.038 80.4557 138.556 80.5273 138.035 80.5273C137.423 80.5273 136.863 80.4167 136.355 80.1953C135.848 79.987 135.405 79.694 135.027 79.3164C134.65 78.9258 134.357 78.4635 134.148 77.9297C133.94 77.3828 133.836 76.7839 133.836 76.1328C133.836 75.2995 133.986 74.5768 134.285 73.9648C134.585 73.3398 134.93 72.8255 135.32 72.4219C135.711 72.0052 136.102 71.6992 136.492 71.5039C136.883 71.2956 137.176 71.1914 137.371 71.1914C137.592 71.1914 137.755 71.25 137.859 71.3672C137.977 71.4844 138.035 71.6406 138.035 71.8359C138.035 72.0573 137.964 72.2266 137.82 72.3438C137.69 72.4479 137.521 72.5521 137.312 72.6562C137.104 72.7604 136.883 72.9102 136.648 73.1055C136.414 73.2878 136.193 73.5221 135.984 73.8086C135.789 74.0951 135.626 74.4336 135.496 74.8242C135.366 75.2148 135.301 75.651 135.301 76.1328C135.301 76.5625 135.366 76.9661 135.496 77.3438C135.626 77.7083 135.815 78.0273 136.062 78.3008C136.31 78.5612 136.603 78.7695 136.941 78.9258C137.28 79.069 137.658 79.1406 138.074 79.1406C138.816 79.1406 139.428 78.9714 139.91 78.6328C140.405 78.2812 140.783 77.8385 141.043 77.3047C140.275 76.901 139.643 76.3281 139.148 75.5859C138.654 74.8438 138.406 74.0104 138.406 73.0859C138.406 72.3438 138.582 71.7383 138.934 71.2695C139.298 70.8008 139.773 70.5664 140.359 70.5664C140.711 70.5664 141.043 70.651 141.355 70.8203C141.668 70.9896 141.941 71.2565 142.176 71.6211C142.423 71.9857 142.618 72.4544 142.762 73.0273C142.905 73.6003 142.977 74.2839 142.977 75.0781C142.977 75.4948 142.924 75.931 142.82 76.3867C142.898 76.3997 142.977 76.4062 143.055 76.4062C143.133 76.4062 143.217 76.4062 143.309 76.4062C143.751 76.4062 144.148 76.3542 144.5 76.25C144.852 76.1458 145.171 75.9896 145.457 75.7812C145.743 75.5729 145.997 75.306 146.219 74.9805C146.453 74.6549 146.674 74.2773 146.883 73.8477C146.922 73.7695 147.007 73.6979 147.137 73.6328C147.267 73.5547 147.397 73.5156 147.527 73.5156C147.697 73.5156 147.853 73.5872 147.996 73.7305C148.152 73.8607 148.23 74.0365 148.23 74.2578C148.23 74.362 148.204 74.4792 148.152 74.6094C148.1 74.7266 148.048 74.8372 147.996 74.9414C147.775 75.332 147.514 75.7096 147.215 76.0742C146.928 76.4258 146.583 76.7383 146.18 77.0117C145.789 77.2721 145.346 77.4805 144.852 77.6367C144.357 77.793 143.803 77.8646 143.191 77.8516ZM139.852 72.9297C139.852 73.1771 139.884 73.4375 139.949 73.7109C140.014 73.9844 140.112 74.2578 140.242 74.5312C140.385 74.7917 140.555 75.0456 140.75 75.293C140.958 75.5273 141.199 75.7292 141.473 75.8984C141.512 75.625 141.531 75.3581 141.531 75.0977C141.531 74.7461 141.505 74.388 141.453 74.0234C141.401 73.6589 141.323 73.3268 141.219 73.0273C141.128 72.7148 141.01 72.4674 140.867 72.2852C140.724 72.0898 140.555 71.9922 140.359 71.9922C140.281 71.9922 140.177 72.0508 140.047 72.168C139.917 72.2852 139.852 72.5391 139.852 72.9297ZM153.328 77.8125C152.872 78.5547 152.339 79.1406 151.727 79.5703C151.128 80 150.522 80.2148 149.91 80.2148C149.415 80.2148 148.973 80.1237 148.582 79.9414C148.191 79.7591 147.853 79.5052 147.566 79.1797C147.28 78.8411 147.059 78.4375 146.902 77.9688C146.759 77.5 146.688 76.9727 146.688 76.3867C146.688 75.4753 146.772 74.668 146.941 73.9648C147.124 73.2617 147.319 72.6758 147.527 72.207C147.736 71.7253 147.931 71.3607 148.113 71.1133C148.296 70.8659 148.387 70.7422 148.387 70.7422C148.452 70.6641 148.53 70.6055 148.621 70.5664C148.725 70.5273 148.829 70.5078 148.934 70.5078C149.142 70.5078 149.311 70.5859 149.441 70.7422C149.585 70.8854 149.656 71.0547 149.656 71.25C149.656 71.3281 149.637 71.4062 149.598 71.4844C149.572 71.5625 149.539 71.6406 149.5 71.7188C149.435 71.8359 149.331 72.0182 149.188 72.2656C149.044 72.5 148.895 72.8125 148.738 73.2031C148.582 73.5938 148.445 74.056 148.328 74.5898C148.211 75.1107 148.152 75.7096 148.152 76.3867C148.152 77.1549 148.302 77.7409 148.602 78.1445C148.914 78.5352 149.35 78.7305 149.91 78.7305C150.145 78.7305 150.411 78.6589 150.711 78.5156C151.023 78.3594 151.323 78.125 151.609 77.8125C151.909 77.5 152.169 77.1029 152.391 76.6211C152.612 76.1393 152.755 75.5729 152.82 74.9219L153.113 71.5625C153.139 71.3672 153.224 71.2044 153.367 71.0742C153.51 70.944 153.68 70.8789 153.875 70.8789C154.096 70.8789 154.272 70.9635 154.402 71.1328C154.533 71.2891 154.598 71.4714 154.598 71.6797L154.344 74.9219C154.318 75.1953 154.324 75.5534 154.363 75.9961C154.415 76.4388 154.513 76.875 154.656 77.3047C154.799 77.7344 155.014 78.1055 155.301 78.418C155.587 78.7174 155.965 78.8672 156.434 78.8672C156.772 78.8672 157.104 78.7826 157.43 78.6133C157.755 78.431 158.068 78.1966 158.367 77.9102C158.667 77.6237 158.94 77.3047 159.188 76.9531C159.448 76.5885 159.682 76.224 159.891 75.8594C160.112 75.4948 160.301 75.1497 160.457 74.8242C160.613 74.4857 160.743 74.1992 160.848 73.9648C160.913 73.8216 161.004 73.7109 161.121 73.6328C161.238 73.5547 161.368 73.5156 161.512 73.5156C161.746 73.5156 161.928 73.5938 162.059 73.75C162.189 73.9062 162.254 74.0755 162.254 74.2578C162.254 74.362 162.234 74.4596 162.195 74.5508C162.143 74.6549 162.039 74.8763 161.883 75.2148C161.74 75.5404 161.544 75.918 161.297 76.3477C161.062 76.7643 160.776 77.207 160.438 77.6758C160.099 78.1445 159.721 78.5807 159.305 78.9844C158.888 79.375 158.432 79.7005 157.938 79.9609C157.456 80.2083 156.935 80.332 156.375 80.332C155.607 80.332 154.969 80.1172 154.461 79.6875C153.953 79.2448 153.576 78.6198 153.328 77.8125ZM162.918 71.9727C162.866 72.3242 162.801 72.6562 162.723 72.9688C162.645 73.2682 162.566 73.5352 162.488 73.7695C162.423 73.9909 162.365 74.1732 162.312 74.3164C162.26 74.4596 162.228 74.5378 162.215 74.5508C162.085 74.8503 161.857 75 161.531 75C161.349 75 161.18 74.9349 161.023 74.8047C160.867 74.6615 160.789 74.4857 160.789 74.2773C160.789 74.1992 160.802 74.1406 160.828 74.1016C160.854 74.0625 160.893 73.9844 160.945 73.8672C160.997 73.75 161.062 73.5547 161.141 73.2812C161.219 73.0078 161.316 72.5846 161.434 72.0117C161.212 72.0117 160.984 72.0052 160.75 71.9922C160.516 71.9792 160.301 71.9336 160.105 71.8555C159.897 71.7773 159.728 71.6536 159.598 71.4844C159.467 71.3151 159.402 71.0807 159.402 70.7812C159.402 70.5599 159.467 70.2604 159.598 69.8828C159.715 69.5052 159.878 69.1341 160.086 68.7695C160.294 68.4049 160.529 68.0924 160.789 67.832C161.049 67.5586 161.31 67.4219 161.57 67.4219C161.87 67.4219 162.111 67.5326 162.293 67.7539C162.488 67.9753 162.638 68.2487 162.742 68.5742C162.846 68.8867 162.918 69.2188 162.957 69.5703C163.009 69.9219 163.035 70.2279 163.035 70.4883C163.257 70.4883 163.471 70.4883 163.68 70.4883C163.901 70.4753 164.109 70.4688 164.305 70.4688C165.047 70.4688 165.613 70.6315 166.004 70.957C166.395 71.2826 166.59 71.8164 166.59 72.5586C166.59 72.8581 166.57 73.1706 166.531 73.4961C166.492 73.8216 166.447 74.1602 166.395 74.5117C166.342 74.8503 166.297 75.1888 166.258 75.5273C166.219 75.8659 166.199 76.1979 166.199 76.5234C166.199 76.9922 166.264 77.3828 166.395 77.6953C166.525 77.9948 166.688 78.2357 166.883 78.418C167.078 78.6003 167.286 78.7305 167.508 78.8086C167.729 78.8737 167.931 78.9062 168.113 78.9062C168.673 78.9062 169.201 78.724 169.695 78.3594C170.19 77.9948 170.646 77.5586 171.062 77.0508C171.479 76.5299 171.85 75.9831 172.176 75.4102C172.514 74.8372 172.794 74.3359 173.016 73.9062C173.081 73.7891 173.172 73.6979 173.289 73.6328C173.406 73.5677 173.53 73.5352 173.66 73.5352C173.895 73.5352 174.077 73.6133 174.207 73.7695C174.337 73.9128 174.402 74.0755 174.402 74.2578C174.402 74.388 174.376 74.5052 174.324 74.6094C174.025 75.1432 173.673 75.7487 173.27 76.4258C172.879 77.0898 172.43 77.7148 171.922 78.3008C171.414 78.8867 170.841 79.3815 170.203 79.7852C169.578 80.1888 168.888 80.3906 168.133 80.3906C167.664 80.3906 167.221 80.2995 166.805 80.1172C166.388 79.9479 166.023 79.7005 165.711 79.375C165.411 79.0365 165.171 78.6263 164.988 78.1445C164.806 77.6497 164.715 77.0964 164.715 76.4844C164.715 75.8333 164.78 75.1888 164.91 74.5508C165.04 73.8997 165.105 73.2812 165.105 72.6953C165.105 72.4479 165.047 72.2656 164.93 72.1484C164.826 72.0182 164.585 71.9531 164.207 71.9531C164.025 71.9531 163.823 71.9531 163.602 71.9531C163.393 71.9531 163.165 71.9596 162.918 71.9727ZM161.609 70.5273C161.609 70.4362 161.603 70.319 161.59 70.1758C161.59 70.0195 161.577 69.8698 161.551 69.7266C161.538 69.5833 161.512 69.4596 161.473 69.3555C161.447 69.2513 161.414 69.1992 161.375 69.1992C161.336 69.1992 161.284 69.2513 161.219 69.3555C161.167 69.4466 161.108 69.5638 161.043 69.707C160.978 69.8372 160.919 69.9805 160.867 70.1367C160.815 70.293 160.776 70.4232 160.75 70.5273H161.609ZM216.492 59.4922C216.453 59.6745 216.368 59.8177 216.238 59.9219C216.108 60.026 215.965 60.0781 215.809 60.0781C215.574 60.0781 215.385 60.0065 215.242 59.8633C215.099 59.707 215.027 59.5312 215.027 59.3359C215.027 59.1406 215.047 58.9518 215.086 58.7695C215.125 58.5742 215.145 58.3854 215.145 58.2031C215.145 57.2526 214.852 56.3997 214.266 55.6445C213.68 54.8893 212.846 54.2578 211.766 53.75C210.698 53.2292 209.396 52.832 207.859 52.5586C206.323 52.2852 204.611 52.1484 202.723 52.1484C201.277 52.1484 199.819 52.2461 198.348 52.4414C196.889 52.6237 195.483 52.8971 194.129 53.2617C192.788 53.6133 191.531 54.0625 190.359 54.6094C189.188 55.1432 188.165 55.7682 187.293 56.4844C186.434 57.1875 185.757 57.9753 185.262 58.8477C184.767 59.707 184.52 60.651 184.52 61.6797C184.52 62.474 184.689 63.1771 185.027 63.7891C185.379 64.388 185.854 64.9154 186.453 65.3711C187.052 65.8138 187.755 66.1979 188.562 66.5234C189.383 66.8359 190.268 67.1029 191.219 67.3242C192.169 67.5326 193.159 67.7083 194.188 67.8516C195.216 67.9818 196.251 68.0924 197.293 68.1836L200.301 68.4375C201.798 68.5677 203.139 68.7044 204.324 68.8477C205.509 68.9909 206.551 69.1732 207.449 69.3945C208.947 69.7721 210.053 70.3125 210.77 71.0156C211.486 71.7188 211.844 72.6562 211.844 73.8281C211.844 74.9609 211.531 75.957 210.906 76.8164C210.281 77.6758 209.428 78.3984 208.348 78.9844C207.267 79.5703 206.004 80.013 204.559 80.3125C203.113 80.612 201.564 80.7617 199.91 80.7617C198.113 80.7617 196.531 80.638 195.164 80.3906C193.81 80.1562 192.671 79.8958 191.746 79.6094C190.835 79.3099 190.138 79.0365 189.656 78.7891C189.174 78.5417 188.914 78.4049 188.875 78.3789C188.641 78.2487 188.523 78.0404 188.523 77.7539C188.523 77.5326 188.602 77.3568 188.758 77.2266C188.914 77.0833 189.083 77.0117 189.266 77.0117C189.409 77.0117 189.539 77.0508 189.656 77.1289C189.669 77.1289 189.891 77.2461 190.32 77.4805C190.763 77.7018 191.414 77.9492 192.273 78.2227C193.146 78.4961 194.22 78.7435 195.496 78.9648C196.772 79.1862 198.257 79.2969 199.949 79.2969C201.629 79.2969 203.113 79.1602 204.402 78.8867C205.691 78.6133 206.772 78.2357 207.645 77.7539C208.53 77.2591 209.194 76.6862 209.637 76.0352C210.092 75.3711 210.32 74.6549 210.32 73.8867C210.32 73.431 210.236 73.0404 210.066 72.7148C209.91 72.3763 209.689 72.0898 209.402 71.8555C209.116 71.6081 208.771 71.3997 208.367 71.2305C207.977 71.0612 207.547 70.918 207.078 70.8008C206.583 70.6706 206.049 70.5599 205.477 70.4688C204.917 70.3776 204.337 70.2995 203.738 70.2344C203.139 70.1693 202.534 70.1107 201.922 70.0586C201.323 70.0065 200.73 69.9544 200.145 69.9023L197.137 69.6484C194.767 69.4531 192.697 69.1536 190.926 68.75C189.168 68.3333 187.703 67.806 186.531 67.168C185.359 66.5169 184.48 65.7422 183.895 64.8438C183.309 63.9453 183.016 62.8971 183.016 61.6992C183.016 60.4753 183.289 59.3555 183.836 58.3398C184.396 57.3112 185.151 56.3867 186.102 55.5664C187.065 54.7461 188.185 54.0365 189.461 53.4375C190.75 52.8255 192.124 52.3177 193.582 51.9141C195.04 51.5104 196.551 51.2109 198.113 51.0156C199.676 50.8073 201.212 50.7031 202.723 50.7031C204.611 50.7031 206.251 50.8203 207.645 51.0547C209.051 51.276 210.249 51.569 211.238 51.9336C212.241 52.2852 213.061 52.6888 213.699 53.1445C214.337 53.6003 214.852 54.0495 215.242 54.4922C216.167 55.5729 216.629 56.8034 216.629 58.1836C216.629 58.6393 216.583 59.0755 216.492 59.4922ZM228.699 74.5898C228.556 74.8893 228.374 75.2474 228.152 75.6641C227.944 76.0677 227.703 76.4909 227.43 76.9336C227.156 77.3763 226.85 77.819 226.512 78.2617C226.173 78.6914 225.802 79.082 225.398 79.4336C225.008 79.7721 224.585 80.0456 224.129 80.2539C223.686 80.4753 223.211 80.5859 222.703 80.5859C221.922 80.5859 221.251 80.3451 220.691 79.8633C220.132 79.3815 219.656 78.75 219.266 77.9688C218.875 77.1875 218.556 76.3021 218.309 75.3125C218.074 74.3099 217.892 73.2943 217.762 72.2656C217.632 71.224 217.54 70.2148 217.488 69.2383C217.449 68.2617 217.43 67.3958 217.43 66.6406C217.43 65.5469 217.462 64.4141 217.527 63.2422C217.605 62.0703 217.723 60.9245 217.879 59.8047C218.035 58.6849 218.23 57.6237 218.465 56.6211C218.712 55.6185 218.999 54.7396 219.324 53.9844C219.663 53.2292 220.047 52.6302 220.477 52.1875C220.906 51.7448 221.395 51.5234 221.941 51.5234C222.371 51.5234 222.755 51.6276 223.094 51.8359C223.445 52.0312 223.738 52.3568 223.973 52.8125C224.207 53.2682 224.389 53.8607 224.52 54.5898C224.65 55.319 224.715 56.2109 224.715 57.2656C224.715 58.5677 224.578 59.9154 224.305 61.3086C224.031 62.6888 223.66 64.082 223.191 65.4883C222.723 66.8945 222.169 68.3008 221.531 69.707C220.893 71.1003 220.21 72.4609 219.48 73.7891C219.806 75.4427 220.242 76.7448 220.789 77.6953C221.336 78.6328 221.993 79.1016 222.762 79.1016C223.283 79.1016 223.784 78.8997 224.266 78.4961C224.747 78.0794 225.19 77.5911 225.594 77.0312C225.997 76.4714 226.349 75.9049 226.648 75.332C226.961 74.7461 227.202 74.2773 227.371 73.9258C227.436 73.7956 227.527 73.6979 227.645 73.6328C227.762 73.5547 227.892 73.5156 228.035 73.5156C228.257 73.5156 228.432 73.5938 228.562 73.75C228.706 73.9062 228.777 74.082 228.777 74.2773C228.777 74.3555 228.751 74.4596 228.699 74.5898ZM218.914 66.7383C218.914 67.5716 218.934 68.3724 218.973 69.1406C219.012 69.9089 219.064 70.6445 219.129 71.3477C219.676 70.293 220.197 69.1732 220.691 67.9883C221.186 66.7904 221.622 65.5859 222 64.375C222.378 63.151 222.677 61.9401 222.898 60.7422C223.133 59.5312 223.25 58.3789 223.25 57.2852C223.25 55.7487 223.126 54.6484 222.879 53.9844C222.632 53.3203 222.299 52.9883 221.883 52.9883C221.609 52.9883 221.342 53.1771 221.082 53.5547C220.835 53.9323 220.6 54.4466 220.379 55.0977C220.158 55.7487 219.956 56.5169 219.773 57.4023C219.591 58.2878 219.435 59.2383 219.305 60.2539C219.188 61.2695 219.09 62.3307 219.012 63.4375C218.947 64.5443 218.914 65.6445 218.914 66.7383ZM234.656 80.2734C235.112 79.8177 235.574 79.3555 236.043 78.8867C236.512 78.4049 236.967 77.9036 237.41 77.3828C237.853 76.862 238.263 76.3216 238.641 75.7617C239.031 75.1888 239.376 74.5833 239.676 73.9453C239.741 73.8021 239.832 73.6979 239.949 73.6328C240.066 73.5547 240.197 73.5156 240.34 73.5156C240.561 73.5156 240.737 73.5938 240.867 73.75C241.01 73.9062 241.082 74.082 241.082 74.2773C241.082 74.3815 241.062 74.4792 241.023 74.5703C240.62 75.4167 240.158 76.1914 239.637 76.8945C239.116 77.5977 238.569 78.2682 237.996 78.9062C237.423 79.5312 236.844 80.1367 236.258 80.7227C235.672 81.3216 235.112 81.9206 234.578 82.5195C234.526 83.418 234.526 84.3164 234.578 85.2148C234.63 86.1263 234.656 87.0898 234.656 88.1055C234.656 88.9388 234.63 89.7721 234.578 90.6055C234.526 91.4388 234.441 92.2331 234.324 92.9883C234.207 93.7565 234.044 94.4727 233.836 95.1367C233.641 95.8008 233.387 96.3737 233.074 96.8555C232.762 97.3503 232.397 97.7344 231.98 98.0078C231.564 98.2943 231.076 98.4375 230.516 98.4375C229.591 98.4375 228.882 98.1185 228.387 97.4805C227.892 96.8424 227.645 95.9505 227.645 94.8047C227.645 94.1797 227.71 93.5091 227.84 92.793C227.983 92.0768 228.178 91.3346 228.426 90.5664C228.673 89.8112 228.966 89.043 229.305 88.2617C229.656 87.4805 230.034 86.7188 230.438 85.9766C230.841 85.2344 231.271 84.5247 231.727 83.8477C232.182 83.1836 232.645 82.5781 233.113 82.0312C233.139 81.4062 233.165 80.7552 233.191 80.0781C233.23 79.4141 233.27 78.7956 233.309 78.2227C232.97 78.8216 232.547 79.3034 232.039 79.668C231.544 80.0326 230.997 80.2148 230.398 80.2148C229.409 80.2148 228.634 79.8828 228.074 79.2188C227.514 78.5547 227.234 77.6432 227.234 76.4844C227.234 75.638 227.312 74.8698 227.469 74.1797C227.638 73.4766 227.814 72.8776 227.996 72.3828C228.191 71.875 228.367 71.4909 228.523 71.2305C228.68 70.957 228.758 70.8268 228.758 70.8398C228.901 70.6185 229.103 70.5078 229.363 70.5078C229.585 70.5078 229.76 70.5859 229.891 70.7422C230.034 70.8854 230.105 71.0547 230.105 71.25C230.105 71.3932 230.066 71.5234 229.988 71.6406C230.001 71.6276 229.936 71.7383 229.793 71.9727C229.663 72.194 229.513 72.5195 229.344 72.9492C229.188 73.3789 229.038 73.8932 228.895 74.4922C228.764 75.0911 228.699 75.7487 228.699 76.4648C228.699 77.181 228.829 77.7409 229.09 78.1445C229.35 78.5482 229.773 78.75 230.359 78.75C231.102 78.75 231.772 78.2031 232.371 77.1094C232.97 76.0026 233.478 74.401 233.895 72.3047C233.921 72.1354 233.999 71.9987 234.129 71.8945C234.259 71.7773 234.415 71.7188 234.598 71.7188C234.806 71.7188 234.982 71.7904 235.125 71.9336C235.268 72.0768 235.34 72.2526 235.34 72.4609C235.34 72.5 235.314 72.7344 235.262 73.1641C235.21 73.5807 235.145 74.1406 235.066 74.8438C235.001 75.5469 234.93 76.3672 234.852 77.3047C234.773 78.2292 234.708 79.2188 234.656 80.2734ZM233.094 84.4141C232.508 85.2604 231.967 86.1523 231.473 87.0898C230.991 88.0273 230.574 88.9583 230.223 89.8828C229.871 90.8073 229.598 91.6927 229.402 92.5391C229.207 93.3854 229.109 94.1406 229.109 94.8047C229.109 95.4818 229.22 96.0091 229.441 96.3867C229.663 96.7773 230.014 96.9727 230.496 96.9727C230.926 96.9727 231.303 96.7578 231.629 96.3281C231.967 95.9115 232.247 95.3125 232.469 94.5312C232.703 93.75 232.879 92.7995 232.996 91.6797C233.113 90.5729 233.172 89.3294 233.172 87.9492C233.172 87.3893 233.159 86.8229 233.133 86.25C233.12 85.6771 233.107 85.0651 233.094 84.4141ZM250.809 74.5898C250.665 74.8893 250.483 75.2474 250.262 75.6641C250.053 76.0677 249.812 76.4909 249.539 76.9336C249.266 77.3763 248.96 77.819 248.621 78.2617C248.283 78.6914 247.911 79.082 247.508 79.4336C247.117 79.7721 246.694 80.0456 246.238 80.2539C245.796 80.4753 245.32 80.5859 244.812 80.5859C244.031 80.5859 243.361 80.3451 242.801 79.8633C242.241 79.3815 241.766 78.75 241.375 77.9688C240.984 77.1875 240.665 76.3021 240.418 75.3125C240.184 74.3099 240.001 73.2943 239.871 72.2656C239.741 71.224 239.65 70.2148 239.598 69.2383C239.559 68.2617 239.539 67.3958 239.539 66.6406C239.539 65.5469 239.572 64.4141 239.637 63.2422C239.715 62.0703 239.832 60.9245 239.988 59.8047C240.145 58.6849 240.34 57.6237 240.574 56.6211C240.822 55.6185 241.108 54.7396 241.434 53.9844C241.772 53.2292 242.156 52.6302 242.586 52.1875C243.016 51.7448 243.504 51.5234 244.051 51.5234C244.48 51.5234 244.865 51.6276 245.203 51.8359C245.555 52.0312 245.848 52.3568 246.082 52.8125C246.316 53.2682 246.499 53.8607 246.629 54.5898C246.759 55.319 246.824 56.2109 246.824 57.2656C246.824 58.5677 246.688 59.9154 246.414 61.3086C246.141 62.6888 245.77 64.082 245.301 65.4883C244.832 66.8945 244.279 68.3008 243.641 69.707C243.003 71.1003 242.319 72.4609 241.59 73.7891C241.915 75.4427 242.352 76.7448 242.898 77.6953C243.445 78.6328 244.103 79.1016 244.871 79.1016C245.392 79.1016 245.893 78.8997 246.375 78.4961C246.857 78.0794 247.299 77.5911 247.703 77.0312C248.107 76.4714 248.458 75.9049 248.758 75.332C249.07 74.7461 249.311 74.2773 249.48 73.9258C249.546 73.7956 249.637 73.6979 249.754 73.6328C249.871 73.5547 250.001 73.5156 250.145 73.5156C250.366 73.5156 250.542 73.5938 250.672 73.75C250.815 73.9062 250.887 74.082 250.887 74.2773C250.887 74.3555 250.861 74.4596 250.809 74.5898ZM241.023 66.7383C241.023 67.5716 241.043 68.3724 241.082 69.1406C241.121 69.9089 241.173 70.6445 241.238 71.3477C241.785 70.293 242.306 69.1732 242.801 67.9883C243.296 66.7904 243.732 65.5859 244.109 64.375C244.487 63.151 244.786 61.9401 245.008 60.7422C245.242 59.5312 245.359 58.3789 245.359 57.2852C245.359 55.7487 245.236 54.6484 244.988 53.9844C244.741 53.3203 244.409 52.9883 243.992 52.9883C243.719 52.9883 243.452 53.1771 243.191 53.5547C242.944 53.9323 242.71 54.4466 242.488 55.0977C242.267 55.7487 242.065 56.5169 241.883 57.4023C241.701 58.2878 241.544 59.2383 241.414 60.2539C241.297 61.2695 241.199 62.3307 241.121 63.4375C241.056 64.5443 241.023 65.6445 241.023 66.7383ZM251.844 77.8516C252.117 78.2292 252.469 78.5352 252.898 78.7695C253.328 78.9909 253.855 79.1016 254.48 79.1016C255.118 79.1016 255.698 78.9518 256.219 78.6523C256.74 78.3398 257.215 77.9362 257.645 77.4414C258.074 76.9466 258.458 76.3932 258.797 75.7812C259.135 75.1693 259.441 74.5573 259.715 73.9453C259.78 73.8021 259.871 73.6979 259.988 73.6328C260.105 73.5547 260.236 73.5156 260.379 73.5156C260.6 73.5156 260.776 73.5938 260.906 73.75C261.049 73.9062 261.121 74.0755 261.121 74.2578C261.121 74.3229 261.115 74.3815 261.102 74.4336C261.089 74.4727 261.069 74.5182 261.043 74.5703C260.145 76.5495 259.161 78.0404 258.094 79.043C257.039 80.0456 255.841 80.5599 254.5 80.5859C253.641 80.5859 252.898 80.4167 252.273 80.0781C251.648 79.7526 251.134 79.3294 250.73 78.8086C250.327 78.2747 250.027 77.6758 249.832 77.0117C249.637 76.3477 249.539 75.6836 249.539 75.0195C249.539 74.3555 249.617 73.7435 249.773 73.1836C249.943 72.6237 250.177 72.1354 250.477 71.7188C250.789 71.3021 251.154 70.9766 251.57 70.7422C252 70.5078 252.469 70.3906 252.977 70.3906C253.276 70.3906 253.569 70.4557 253.855 70.5859C254.155 70.7031 254.422 70.8789 254.656 71.1133C254.891 71.3346 255.079 71.6081 255.223 71.9336C255.366 72.2591 255.438 72.6302 255.438 73.0469C255.438 73.5807 255.346 74.082 255.164 74.5508C254.982 75.0195 254.728 75.4557 254.402 75.8594C254.09 76.263 253.712 76.6341 253.27 76.9727C252.827 77.3112 252.352 77.6042 251.844 77.8516ZM251.258 76.582C251.661 76.4128 252.026 76.1979 252.352 75.9375C252.69 75.6771 252.977 75.3906 253.211 75.0781C253.445 74.7656 253.628 74.4401 253.758 74.1016C253.888 73.75 253.953 73.3984 253.953 73.0469C253.953 72.6562 253.855 72.3633 253.66 72.168C253.465 71.9596 253.237 71.8555 252.977 71.8555C252.625 71.8555 252.326 71.9531 252.078 72.1484C251.831 72.3438 251.629 72.5977 251.473 72.9102C251.316 73.2227 251.199 73.5742 251.121 73.9648C251.056 74.3424 251.023 74.7201 251.023 75.0977C251.023 75.332 251.043 75.5794 251.082 75.8398C251.134 76.1003 251.193 76.3477 251.258 76.582Z" fill="white"/>
</svg>
